<svg width="110" height="11" viewBox="0 0 110 11" fill="none" xmlns="http://www.w3.org/2000/svg">
<path d="M29.4153 9.11029V0.387784H28.0784V10.564H34.2978V9.22659H29.5315C29.4734 9.28473 29.4153 9.16844 29.4153 9.11029ZM43.4815 0.271484C42.0865 0.271484 40.7497 0.852984 39.7615 1.84153C38.7734 2.83008 38.2503 4.16753 38.2503 5.50498C38.2503 6.90059 38.7734 8.17988 39.7615 9.16844C40.6915 10.157 42.0865 10.7385 43.4815 10.7385C44.8765 10.7385 46.2134 10.2151 47.2015 9.16844C48.1897 8.17988 48.7128 6.84243 48.7128 5.50498C48.7128 4.10938 48.1897 2.83008 47.2015 1.84153C46.2134 0.794834 44.8765 0.271484 43.4815 0.271484ZM46.2134 8.23804C45.4578 8.99399 44.4697 9.40104 43.4815 9.40104C42.4934 9.40104 41.5053 8.99399 40.7497 8.23804C39.994 7.48209 39.5872 6.55168 39.5872 5.50498C39.5872 4.45828 39.994 3.52788 40.7497 2.77193C41.4472 2.01598 42.4353 1.60893 43.4815 1.60893C44.4697 1.60893 45.5159 2.01598 46.2134 2.77193C46.9109 3.52788 47.3178 4.45828 47.3178 5.50498C47.3759 6.55168 46.969 7.48209 46.2134 8.23804ZM17.0928 9.11029V6.31908C17.0928 6.26093 17.1509 6.20279 17.209 6.20279H21.8009V4.86533H17.209C17.1509 4.86533 17.0928 4.80719 17.0928 4.74904V1.95783C17.0928 1.89968 17.1509 1.84153 17.209 1.84153H21.9172V0.504084H15.7559V10.6803H21.9753V9.34289H17.209C17.1509 9.28474 17.0928 9.16844 17.0928 9.11029ZM5.11903 7.94729C5.11903 8.00544 5.06091 8.00543 5.00278 8.00543C4.94466 8.00543 4.88653 8.00544 4.88653 7.94729L1.86403 0.387784H0.352783L4.47966 10.564H5.46778L9.59466 0.387784V0.329635H8.14153L5.11903 7.94729ZM94.4572 1.72523H97.4797C97.5378 1.72523 97.5959 1.78338 97.5959 1.84153V10.564H98.9328V1.84153C98.9328 1.78338 98.9909 1.72523 99.049 1.72523H102.072V0.387784H94.399V1.72523H94.4572ZM55.9203 3.17898V1.84153C55.9203 1.78338 55.9203 1.78338 55.9784 1.78338H58.3034C58.7684 1.78338 59.1753 1.89968 59.524 2.19043C59.989 2.53933 60.2215 3.06268 60.2215 3.64418C60.2215 3.99308 60.1053 4.40014 59.8728 4.69089C59.6403 4.98164 59.6403 5.38868 59.9309 5.67943C60.0472 5.79573 60.2215 5.85389 60.3959 5.85389C60.5703 5.85389 60.7447 5.79573 60.8609 5.67943L60.919 5.62129C61.384 5.09794 61.6165 4.34198 61.6165 3.64418C61.6165 2.88823 61.384 2.13228 60.8609 1.55078C60.454 1.02743 59.6403 0.387784 58.2453 0.387784H54.5253V10.6222H55.9203V5.62129C55.9203 5.62129 55.9203 5.56314 55.9784 5.56314H56.0365L60.2797 10.564L60.3378 10.6222H62.1397L58.9428 6.84243L55.9203 3.17898ZM108.233 10.6222H109.628V0.387784H108.233V10.6222ZM80.6234 1.72523H83.6459C83.704 1.72523 83.7622 1.78338 83.7622 1.84153V10.564H85.099V1.84153C85.099 1.78338 85.1572 1.72523 85.2153 1.72523H88.2378V0.387784H80.5653V1.72523H80.6234ZM69.6378 9.22659C69.6378 9.22659 69.5797 9.16844 69.5797 9.11029V6.31908C69.5797 6.26093 69.6378 6.20279 69.6959 6.20279H74.2878V4.86533H69.6959C69.6378 4.86533 69.5797 4.80719 69.5797 4.74904V1.95783C69.5797 1.89968 69.6378 1.84153 69.6959 1.84153H74.3459V0.504084H68.1847V10.6803H74.404V9.34289H69.6959C69.6959 9.28474 69.6959 9.22659 69.6378 9.22659Z" fill="white"/>
</svg>
